# xmcd
#
# Track frame offsets: 
#        150
#        15045
#        26374
#        41026
#        55154
#        67784
#        79218
#        93291
#        105125
#        120301
#
# Disc length: 1774 seconds
#
# Revision: 0
# Processed by: cddbd v1.5.2PL0 Copyright (c) Steve Scherf et al.
# Submitted via: ExactAudioCopy v0.99pb5
#
DISCID=5f06ec0a
DTITLE=Freddie Hart - Sermon On The Mountain
DYEAR=2001
DGENRE=Gospel
TTITLE0=Sermon On The Mountain
TTITLE1=Wings Of Faith
TTITLE2=Without Jesus
TTITLE3=Where He Leads Me
TTITLE4=The Scars On Jesus Christ
TTITLE5=Let's Witness For The Lord
TTITLE6=Let Me Be There
TTITLE7=Pretty World
TTITLE8=Don't Ever Let Go
TTITLE9=The Lord Loves You
EXTD=
EXTT0=
EXTT1=
EXTT2=
EXTT3=
EXTT4=
EXTT5=
EXTT6=
EXTT7=
EXTT8=
EXTT9=
PLAYORDER=
